<svg width="640" height="520" viewBox="0 0 640 520" xmlns="http://www.w3.org/2000/svg">
  <defs>
    <linearGradient id="grad" x1="0%" y1="0%" x2="100%" y2="100%">
      <stop offset="0%" stop-color="#3B82F6" />
      <stop offset="60%" stop-color="#0EA5E9" />
      <stop offset="100%" stop-color="#67E8F9" />
    </linearGradient>
    <linearGradient id="panel" x1="0%" y1="0%" x2="0%" y2="100%">
      <stop offset="0%" stop-color="#FFFFFF" stop-opacity="0.95" />
      <stop offset="100%" stop-color="#E2E8F0" stop-opacity="0.9" />
    </linearGradient>
  </defs>
  <rect width="640" height="520" rx="48" fill="#F8FAFC" />
  <circle cx="520" cy="120" r="120" fill="url(#grad)" opacity="0.4" />
  <circle cx="120" cy="60" r="60" fill="#0EA5E9" opacity="0.25" />
  <rect x="80" y="140" width="480" height="280" rx="36" fill="url(#panel)" stroke="#E2E8F0" stroke-width="2" />
  <rect x="120" y="190" width="140" height="160" rx="20" fill="#3B82F6" opacity="0.16" />
  <rect x="280" y="190" width="240" height="80" rx="20" fill="#3B82F6" opacity="0.12" />
  <rect x="280" y="292" width="180" height="58" rx="18" fill="#0EA5E9" opacity="0.18" />
  <path d="M130 320l20-40 26 30 34-64 32 42" stroke="#0EA5E9" stroke-width="10" stroke-linecap="round" stroke-linejoin="round" fill="none" />
  <circle cx="410" cy="220" r="18" fill="#3B82F6" opacity="0.35" />
  <circle cx="470" cy="220" r="18" fill="#0EA5E9" opacity="0.35" />
  <circle cx="350" cy="220" r="18" fill="#38BDF8" opacity="0.35" />
  <rect x="320" y="312" width="80" height="12" rx="6" fill="#0F172A" opacity="0.1" />
  <rect x="320" y="336" width="120" height="12" rx="6" fill="#0F172A" opacity="0.12" />
</svg>
